<?xml version="1.0" encoding="utf-8"?>
<!-- Generator: Adobe Illustrator 24.0.0, SVG Export Plug-In . SVG Version: 6.00 Build 0)  -->
<svg version="1.1" id="Capa_1" xmlns="http://www.w3.org/2000/svg" xmlns:xlink="http://www.w3.org/1999/xlink" x="0px" y="0px"
	 viewBox="0 0 421.01 127.51" style="enable-background:new 0 0 421.01 127.51;" xml:space="preserve">
<style type="text/css">
	.st0{fill:#152138;}
</style>
<g>
	<path class="st0" d="M87.72,60.71c-0.31-8.34-0.62-18.44-0.62-28.53H86.9c-2.27,8.86-5.15,18.75-7.83,26.88l-8.45,27.09H58.37
		l-7.42-26.78c-2.27-8.24-4.53-18.13-6.28-27.19h-0.21c-0.31,9.37-0.72,20.08-1.13,28.74l-1.34,26.37H27.47l4.43-69.42H52.8
		l6.8,23.17c2.27,8.03,4.33,16.69,5.87,24.82h0.41c1.85-8.03,4.22-17.2,6.59-24.92l7.31-23.07h20.6l3.71,69.42H88.85L87.72,60.71z"
		/>
	<path class="st0" d="M151.5,87.28V17.86h18.33l14.42,25.44c4.12,7.31,8.14,15.96,11.33,23.79h0.21
		c-0.93-9.17-1.24-18.54-1.24-29.04V17.86h14.42v69.42H192.5L177.66,60.5c-4.12-7.42-8.75-16.38-12.05-24.51h-0.41
		c0.51,9.27,0.72,19.05,0.72,30.38v20.91H151.5z"/>
	<path class="st0" d="M222.57,18.89c5.77-0.93,13.29-1.54,21.11-1.54c13.29,0,21.94,2.47,28.53,7.42
		c7.21,5.36,11.74,13.9,11.74,26.16c0,13.29-4.84,22.45-11.43,28.12c-7.31,6.08-18.54,8.96-32.13,8.96
		c-8.14,0-14.01-0.51-17.82-1.03V18.89z M238.23,75.44c1.34,0.31,3.61,0.31,5.46,0.31c14.32,0.1,23.69-7.72,23.69-24.31
		c0-14.42-8.45-22.04-22.04-22.04c-3.4,0-5.77,0.31-7.11,0.62V75.44z"/>
	<path class="st0" d="M335.56,57.93h-25.54v16.48h28.53v12.88h-44.19V17.86h42.74v12.87h-27.09v14.42h25.54V57.93z"/>
	<path class="st0" d="M349.26,18.79c5.05-0.82,12.46-1.44,20.91-1.44c10.3,0,17.51,1.54,22.45,5.46c4.22,3.3,6.49,8.24,6.49,14.63
		c0,8.75-6.28,14.83-12.26,16.99v0.31c4.84,1.96,7.52,6.49,9.27,12.87c2.16,7.93,4.22,17,5.56,19.67h-16.07
		c-1.03-2.06-2.78-7.62-4.74-16.17c-1.96-8.75-4.94-11.02-11.43-11.12h-4.63v27.29h-15.55V18.79z M364.81,48.66h6.18
		c7.83,0,12.46-3.91,12.46-9.99c0-6.28-4.33-9.58-11.54-9.58c-3.81,0-5.97,0.21-7.11,0.52V48.66z"/>
	<g>
		<path class="st0" d="M136.21,30.91l7.13-13.77h-30.03l7.13,13.77H136.21z"/>
		<path class="st0" d="M135.76,34.93h-14.88l-10.92,61.7c-0.25,1.39,0.13,2.81,1.03,3.89l13.57,16.56c0.93,1.13,2.31,1.78,3.76,1.77
			c1.46,0,2.84-0.66,3.76-1.79l13.58-16.58c0.9-1.07,1.27-2.49,1.03-3.86L135.76,34.93z"/>
	</g>
</g>
</svg>
